REM DIRINDEX 1\2,1\3,1\4,1\5
REM DIRNAME folder01,folder02,folder03,folder04,folder05
TITLE ""
FILE "1800_100.mp3" MP3
  TRACK 01 AUDIO
    TITLE "2:cjc044_2757"
    INDEX 01 00:00:00
  TRACK 02 AUDIO
    TITLE "0:"
    INDEX 01 00:01:13
  TRACK 03 AUDIO
    TITLE "3:cjc044_2758"
    INDEX 01 00:01:71
  TRACK 04 AUDIO
    TITLE "0:"
    INDEX 01 00:03:14
  TRACK 05 AUDIO
    TITLE "4:cjc044_2759"
    INDEX 01 00:04:01
  TRACK 06 AUDIO
    TITLE "0:"
    INDEX 01 00:05:22
  TRACK 07 AUDIO
    TITLE "5:cjc044_2760"
    INDEX 01 00:05:69
  TRACK 08 AUDIO
    TITLE "0:"
    INDEX 01 00:09:40
  TRACK 09 AUDIO
    TITLE "2:cjc044_2761"
    INDEX 01 00:11:29
  TRACK 10 AUDIO
    TITLE "0:"
    INDEX 01 00:12:34
  TRACK 11 AUDIO
    TITLE "3:cjc044_2762"
    INDEX 01 00:13:24
  TRACK 12 AUDIO
    TITLE "0:"
    INDEX 01 00:14:37
  TRACK 13 AUDIO
    TITLE "4:cjc044_2763"
    INDEX 01 00:15:23
  TRACK 14 AUDIO
    TITLE "0:"
    INDEX 01 00:16:28
  TRACK 15 AUDIO
    TITLE "5:cjc044_2764"
    INDEX 01 00:17:10
  TRACK 16 AUDIO
    TITLE "0:"
    INDEX 01 00:20:26
  TRACK 17 AUDIO
    TITLE "2:cjc044_2765"
    INDEX 01 00:22:09
  TRACK 18 AUDIO
    TITLE "0:"
    INDEX 01 00:23:16
  TRACK 19 AUDIO
    TITLE "3:cjc044_2766"
    INDEX 01 00:24:02
  TRACK 20 AUDIO
    TITLE "0:"
    INDEX 01 00:24:67
  TRACK 21 AUDIO
    TITLE "4:cjc044_2767"
    INDEX 01 00:25:52
  TRACK 22 AUDIO
    TITLE "0:"
    INDEX 01 00:26:66
  TRACK 23 AUDIO
    TITLE "5:cjc044_2768"
    INDEX 01 00:27:41
  TRACK 24 AUDIO
    TITLE "0:"
    INDEX 01 00:30:44
  TRACK 25 AUDIO
    TITLE "2:cjc044_2769"
    INDEX 01 00:32:27
  TRACK 26 AUDIO
    TITLE "0:"
    INDEX 01 00:33:34
  TRACK 27 AUDIO
    TITLE "3:cjc044_2770"
    INDEX 01 00:34:22
  TRACK 28 AUDIO
    TITLE "0:"
    INDEX 01 00:36:01
  TRACK 29 AUDIO
    TITLE "4:cjc044_2771"
    INDEX 01 00:36:62
  TRACK 30 AUDIO
    TITLE "0:"
    INDEX 01 00:37:73
  TRACK 31 AUDIO
    TITLE "5:cjc044_2772"
    INDEX 01 00:38:47
  TRACK 32 AUDIO
    TITLE "0:"
    INDEX 01 00:41:22
  TRACK 33 AUDIO
    TITLE "2:cjc044_2773"
    INDEX 01 00:43:05
  TRACK 34 AUDIO
    TITLE "0:"
    INDEX 01 00:44:34
  TRACK 35 AUDIO
    TITLE "3:cjc044_2774"
    INDEX 01 00:45:20
  TRACK 36 AUDIO
    TITLE "0:"
    INDEX 01 00:46:19
  TRACK 37 AUDIO
    TITLE "4:cjc044_2775"
    INDEX 01 00:47:05
  TRACK 38 AUDIO
    TITLE "0:"
    INDEX 01 00:48:34
  TRACK 39 AUDIO
    TITLE "5:cjc044_2776"
    INDEX 01 00:49:18
  TRACK 40 AUDIO
    TITLE "0:"
    INDEX 01 00:52:04
  TRACK 41 AUDIO
    TITLE "2:cjc044_2777"
    INDEX 01 00:53:60
  TRACK 42 AUDIO
    TITLE "0:"
    INDEX 01 00:54:62
  TRACK 43 AUDIO
    TITLE "3:cjc044_2778"
    INDEX 01 00:55:40
  TRACK 44 AUDIO
    TITLE "0:"
    INDEX 01 00:56:43
  TRACK 45 AUDIO
    TITLE "4:cjc044_2779"
    INDEX 01 00:57:25
  TRACK 46 AUDIO
    TITLE "0:"
    INDEX 01 00:58:28
  TRACK 47 AUDIO
    TITLE "5:cjc044_2780"
    INDEX 01 00:59:08
  TRACK 48 AUDIO
    TITLE "0:"
    INDEX 01 01:02:28
  TRACK 49 AUDIO
    TITLE "2:cjc044_2781"
    INDEX 01 01:04:11
  TRACK 50 AUDIO
    TITLE "0:"
    INDEX 01 01:05:22
  TRACK 51 AUDIO
    TITLE "3:cjc044_2782"
    INDEX 01 01:06:08
  TRACK 52 AUDIO
    TITLE "0:"
    INDEX 01 01:07:29
  TRACK 53 AUDIO
    TITLE "4:cjc044_2783"
    INDEX 01 01:08:05
  TRACK 54 AUDIO
    TITLE "0:"
    INDEX 01 01:09:16
  TRACK 55 AUDIO
    TITLE "5:cjc044_2784"
    INDEX 01 01:10:04
  TRACK 56 AUDIO
    TITLE "0:"
    INDEX 01 01:14:19
  TRACK 57 AUDIO
    TITLE "2:cjc044_2785"
    INDEX 01 01:16:03
  TRACK 58 AUDIO
    TITLE "0:"
    INDEX 01 01:17:22
  TRACK 59 AUDIO
    TITLE "3:cjc044_2786"
    INDEX 01 01:18:06
  TRACK 60 AUDIO
    TITLE "0:"
    INDEX 01 01:18:70
  TRACK 61 AUDIO
    TITLE "4:cjc044_2787"
    INDEX 01 01:19:58
  TRACK 62 AUDIO
    TITLE "0:"
    INDEX 01 01:21:02
  TRACK 63 AUDIO
    TITLE "5:cjc044_2788"
    INDEX 01 01:21:63
  TRACK 64 AUDIO
    TITLE "0:"
    INDEX 01 01:24:32
  TRACK 65 AUDIO
    TITLE "2:cjc044_2789"
    INDEX 01 01:26:21
  TRACK 66 AUDIO
    TITLE "0:"
    INDEX 01 01:27:40
  TRACK 67 AUDIO
    TITLE "3:cjc044_2790"
    INDEX 01 01:28:22
  TRACK 68 AUDIO
    TITLE "0:"
    INDEX 01 01:29:13
  TRACK 69 AUDIO
    TITLE "4:cjc044_2791"
    INDEX 01 01:29:74
  TRACK 70 AUDIO
    TITLE "0:"
    INDEX 01 01:31:16
  TRACK 71 AUDIO
    TITLE "5:cjc044_2792"
    INDEX 01 01:32:00
  TRACK 72 AUDIO
    TITLE "0:"
    INDEX 01 01:35:20
